<mxfile host="app.diagrams.net" agent="Mozilla/5.0 (Windows NT 10.0; Win64; x64) AppleWebKit/537.36 (KHTML, like Gecko) Chrome/131.0.0.0 Safari/537.36" version="25.0.3">
  <diagram name="Page-1" id="XPBoguG0RaIgYUBFx6fS">
    <mxGraphModel dx="1885" dy="1267" grid="0" gridSize="10" guides="1" tooltips="1" connect="1" arrows="1" fold="1" page="0" pageScale="1" pageWidth="850" pageHeight="1100" math="0" shadow="0">
      <root>
        <mxCell id="0" />
        <mxCell id="1" parent="0" />
        <mxCell id="wMHifbRVHvJykSO9Msb5-2" value="Developer" style="shape=umlActor;verticalLabelPosition=bottom;verticalAlign=top;html=1;outlineConnect=0;" vertex="1" parent="1">
          <mxGeometry x="-222" y="11" width="30" height="60" as="geometry" />
        </mxCell>
        <mxCell id="wMHifbRVHvJykSO9Msb5-4" value="" style="whiteSpace=wrap;html=1;aspect=fixed;" vertex="1" parent="1">
          <mxGeometry x="115" y="160" width="80" height="80" as="geometry" />
        </mxCell>
        <mxCell id="wMHifbRVHvJykSO9Msb5-5" value="" style="whiteSpace=wrap;html=1;aspect=fixed;" vertex="1" parent="1">
          <mxGeometry x="-125" y="-77" width="433" height="433" as="geometry" />
        </mxCell>
        <mxCell id="wMHifbRVHvJykSO9Msb5-11" value="Matrix operations" style="ellipse;whiteSpace=wrap;html=1;" vertex="1" parent="1">
          <mxGeometry x="23" y="31" width="120" height="80" as="geometry" />
        </mxCell>
        <mxCell id="wMHifbRVHvJykSO9Msb5-12" value="Fast Fourier Transformation operations" style="ellipse;whiteSpace=wrap;html=1;" vertex="1" parent="1">
          <mxGeometry x="27.5" y="140" width="120" height="80" as="geometry" />
        </mxCell>
        <mxCell id="wMHifbRVHvJykSO9Msb5-13" value="Gradient descent operations" style="ellipse;whiteSpace=wrap;html=1;" vertex="1" parent="1">
          <mxGeometry x="27.5" y="240" width="120" height="80" as="geometry" />
        </mxCell>
        <mxCell id="wMHifbRVHvJykSO9Msb5-14" value="Initialization" style="ellipse;whiteSpace=wrap;html=1;" vertex="1" parent="1">
          <mxGeometry x="27.5" y="-75" width="120" height="80" as="geometry" />
        </mxCell>
        <mxCell id="wMHifbRVHvJykSO9Msb5-17" value="" style="endArrow=classic;html=1;rounded=0;fontSize=12;startSize=8;endSize=8;curved=1;entryX=0;entryY=0.5;entryDx=0;entryDy=0;" edge="1" parent="1" target="wMHifbRVHvJykSO9Msb5-14">
          <mxGeometry width="50" height="50" relative="1" as="geometry">
            <mxPoint x="-189" y="32" as="sourcePoint" />
            <mxPoint x="-6" y="175" as="targetPoint" />
          </mxGeometry>
        </mxCell>
        <mxCell id="wMHifbRVHvJykSO9Msb5-18" value="" style="endArrow=classic;html=1;rounded=0;fontSize=12;startSize=8;endSize=8;curved=1;entryX=0;entryY=0.5;entryDx=0;entryDy=0;" edge="1" parent="1" target="wMHifbRVHvJykSO9Msb5-12">
          <mxGeometry width="50" height="50" relative="1" as="geometry">
            <mxPoint x="-188" y="34" as="sourcePoint" />
            <mxPoint x="-6" y="175" as="targetPoint" />
          </mxGeometry>
        </mxCell>
        <mxCell id="wMHifbRVHvJykSO9Msb5-19" value="" style="endArrow=classic;html=1;rounded=0;fontSize=12;startSize=8;endSize=8;curved=1;entryX=0;entryY=0.5;entryDx=0;entryDy=0;" edge="1" parent="1" target="wMHifbRVHvJykSO9Msb5-13">
          <mxGeometry width="50" height="50" relative="1" as="geometry">
            <mxPoint x="-190" y="30" as="sourcePoint" />
            <mxPoint x="-6" y="175" as="targetPoint" />
          </mxGeometry>
        </mxCell>
        <mxCell id="wMHifbRVHvJykSO9Msb5-20" value="" style="endArrow=classic;html=1;rounded=0;fontSize=12;startSize=8;endSize=8;curved=1;entryX=0;entryY=0.5;entryDx=0;entryDy=0;" edge="1" parent="1" target="wMHifbRVHvJykSO9Msb5-11">
          <mxGeometry width="50" height="50" relative="1" as="geometry">
            <mxPoint x="-188" y="28" as="sourcePoint" />
            <mxPoint x="1" y="104" as="targetPoint" />
          </mxGeometry>
        </mxCell>
      </root>
    </mxGraphModel>
  </diagram>
</mxfile>
